<svg id="图层_1" data-name="图层 1" xmlns="http://www.w3.org/2000/svg" viewBox="0 0 140.31 107.55">
    <defs>
        <style>.cls-1,.cls-2{fill:#f7db9f;}.cls-2{fill-rule:evenodd;}</style>
    </defs>
    <title>s-1</title>
    <path class="cls-1" d="M131.28,255.53h-6.35v16.82H101.77l-4.1-4.77v-12H91.33a2,2,0,0,0-2,2h0v38.8a2,2,0,0,0,2,2h40a2,2,0,0,0,2-2V257.51A2,2,0,0,0,131.28,255.53Zm-3.38,35.88a1.32,1.32,0,0,1-1.32,1.32H95.41a1.32,1.32,0,0,1-1.32-1.32V277.22a1.32,1.32,0,0,1,1.32-1.32h31.17a1.32,1.32,0,0,1,1.32,1.32v14.19Z" transform="translate(-42.15 -190.76)"/>
    <rect class="cls-1" x="60.4" y="66.49" width="17.51" height="1.89"/>
    <rect class="cls-1" x="60.4" y="68.94" width="17.51" height="1.89"/>
    <path class="cls-2" d="M182.46,254.33a32.88,32.88,0,0,1-32.88,32.88,6.58,6.58,0,0,1,0-13.15,19.71,19.71,0,0,0,13.07-34.48q-0.63-.56-1.31-1.06l-0.09-.07c-0.43-.31-0.87-0.61-1.32-0.89l-0.21-.13q-0.63-.38-1.29-0.71l-0.37-.18c-0.4-.19-0.81-0.38-1.23-0.54l-0.55-.2c-0.37-.14-0.75-0.27-1.14-0.38l-0.78-.2c-0.33-.08-0.66-0.17-1-0.24s-0.72-.12-1.08-0.17-0.52-.09-0.78-0.11c-0.64-.06-1.28-0.1-1.93-0.1-0.21,0-.41,0-0.61,0-0.2-1.12-.45-2.23-0.75-3.31-0.07-.27-0.17-0.52-0.25-0.78-0.25-.82-0.5-1.64-0.8-2.44-0.09-.24-0.2-0.47-0.3-0.71-0.32-.81-0.66-1.62-1-2.4-0.09-.19-0.2-0.37-0.29-0.55-0.41-.82-0.84-1.62-1.31-2.41a37.18,37.18,0,0,0-63.85,0c-0.47.78-.9,1.59-1.31,2.41-0.09.19-.2,0.37-0.29,0.55-0.38.78-.71,1.59-1,2.4-0.09.24-.21,0.47-0.3,0.71-0.3.8-.55,1.62-0.8,2.44-0.08.26-.18,0.52-0.25,0.78-0.3,1.09-.55,2.19-0.75,3.31-0.2,0-.4,0-0.61,0-0.65,0-1.3,0-1.93.1-0.26,0-.52.07-0.78,0.11s-0.72.1-1.08,0.17-0.67.15-1,.24l-0.78.2c-0.39.11-.76,0.25-1.14,0.38l-0.55.2c-0.42.17-.83,0.35-1.23,0.54l-0.37.18q-0.66.33-1.29,0.71l-0.21.13c-0.45.28-.89,0.58-1.32,0.89l-0.09.07c-0.45.34-.89,0.69-1.31,1.06A19.71,19.71,0,0,0,75,274.06a6.58,6.58,0,0,1,0,13.15,32.89,32.89,0,0,1-9.62-64.33,50.27,50.27,0,0,1,93.77,0,32.89,32.89,0,0,1,23.27,31.45" transform="translate(-42.15 -190.76)"/>
</svg>
