<svg id="图层_1" data-name="图层 1" xmlns="http://www.w3.org/2000/svg" viewBox="0 0 118.11 111.51">
    <defs>
        <style>.cls-1{fill:#f7db9f;}</style>
    </defs>
    <title>3</title>
    <path class="cls-1" d="M388.69,327.53a26.48,26.48,0,1,1,26.48-26.48A26.51,26.51,0,0,1,388.69,327.53Zm0-46a19.48,19.48,0,1,0,19.48,19.48A19.5,19.5,0,0,0,388.69,281.57Z" transform="translate(-362.21 -241.93)"/>
    <path class="cls-1" d="M444.34,282.49a20.28,20.28,0,1,1,20.28-20.28A20.3,20.3,0,0,1,444.34,282.49Zm0-33.56a13.28,13.28,0,1,0,13.28,13.28A13.29,13.29,0,0,0,444.34,248.93Z" transform="translate(-362.21 -241.93)"/>
    <path class="cls-1" d="M460.08,353.44q-1,0-2-.09a20.28,20.28,0,1,1,22.11-18.27h0A20.28,20.28,0,0,1,460.08,353.44ZM460,319.88a13.28,13.28,0,1,0,13.24,14.54h0a13.28,13.28,0,0,0-12-14.48C460.87,319.9,460.44,319.88,460,319.88Z" transform="translate(-362.21 -241.93)"/>
    <rect class="cls-1" x="405.17" y="275.49" width="27.98" height="7" transform="translate(-445.42 3.16) rotate(-29.79)"/>
    <rect class="cls-1" x="423.01" y="301.98" width="7" height="37.65" transform="translate(-397.04 347.18) rotate(-67.13)"/>
</svg>
