<svg id="图层_1" data-name="图层 1" xmlns="http://www.w3.org/2000/svg" viewBox="0 0 113.29 110.34">
    <defs>
        <style>.cls-1{fill:#f7db9f;}</style>
    </defs>
    <title>save</title>
    <path class="cls-1" d="M473.2,243H456.82V286.4H397.08L386.5,274.1V243H370.13a5.12,5.12,0,0,0-5.1,5.11V348.26a5.12,5.12,0,0,0,5.1,5.11H473.2a5.12,5.12,0,0,0,5.11-5.11V248.14A5.12,5.12,0,0,0,473.2,243Zm-8.73,92.54a3.4,3.4,0,0,1-3.4,3.41h-80.4a3.41,3.41,0,0,1-3.41-3.41V299a3.41,3.41,0,0,1,3.41-3.4h80.4a3.4,3.4,0,0,1,3.4,3.4v36.6Z" transform="translate(-365.03 -243.03)"/>
    <rect class="cls-1" x="34.06" y="4.43" width="45.15" height="4.89"/>
    <rect class="cls-1" x="34.06" y="10.74" width="45.15" height="4.88"/>
</svg>
