<svg id="图层_1" data-name="图层 1" xmlns="http://www.w3.org/2000/svg" viewBox="0 0 113.36 109.7">
    <defs>
        <style>.cls-1{fill:#f7db9f;fill-rule:evenodd;}</style>
    </defs>
    <title>L-save</title>
    <path class="cls-1" d="M163.4,281.45H128.66v9.14L136,297.9v1.83H88.44V297.9l7.31-7.31v-9.14H61A5.49,5.49,0,0,1,55.53,276V202.83A5.49,5.49,0,0,1,61,197.34H94.87l4.8,7.31H62.84v62.17h98.73V204.66h-37l5-7.31H163.4a5.49,5.49,0,0,1,5.49,5.49V276A5.49,5.49,0,0,1,163.4,281.45Z" transform="translate(-55.53 -190.03)"/>
    <path class="cls-1" d="M99.41,215.63a5.47,5.47,0,0,1,3.88,1.61l3.44,3.43V195.51a5.49,5.49,0,1,1,11,0v25.15l3.44-3.43a5.49,5.49,0,1,1,7.76,7.76l-12.8,12.8a5.48,5.48,0,0,1-7.76,0L95.53,225A5.49,5.49,0,0,1,99.41,215.63Z" transform="translate(-55.53 -190.03)"/>
</svg>
