<svg id="图层_1" data-name="图层 1" xmlns="http://www.w3.org/2000/svg" viewBox="0 0 140.31 107.52">
	<defs>
		<style>.cls-1{fill:#f7db9f;fill-rule:evenodd;}</style>
	</defs>
	<title>s-2</title>
	<path class="cls-1" d="M149.91,287.59a6.58,6.58,0,0,1,0-13.15A19.71,19.71,0,0,0,163,240c-0.42-.37-0.86-0.73-1.31-1.06l-0.09-.07c-0.43-.31-0.87-0.61-1.32-0.89l-0.21-.13q-0.63-.38-1.29-0.71l-0.37-.18c-0.4-.19-0.81-0.38-1.23-0.54l-0.55-.2c-0.38-.14-0.75-0.27-1.14-0.38l-0.78-.2c-0.33-.08-0.66-0.17-1-0.24s-0.72-.12-1.08-0.17-0.52-.09-0.78-0.11c-0.64-.06-1.28-0.1-1.93-0.1-0.21,0-.41,0-0.61,0-0.2-1.12-.45-2.23-0.75-3.31-0.07-.27-0.17-0.52-0.25-0.78-0.25-.82-0.5-1.64-0.8-2.44-0.09-.24-0.2-0.47-0.3-0.71-0.32-.81-0.66-1.62-1-2.4-0.09-.19-0.2-0.37-0.29-0.55-0.41-.82-0.84-1.62-1.31-2.41a37.18,37.18,0,0,0-63.85,0c-0.47.78-.9,1.59-1.31,2.41-0.09.19-.2,0.37-0.29,0.55-0.38.78-.71,1.59-1,2.4-0.1.24-.21,0.47-0.3,0.71-0.3.8-.55,1.62-0.8,2.44-0.08.26-.18,0.52-0.25,0.78-0.3,1.09-.55,2.19-0.75,3.31-0.2,0-.4,0-0.61,0-0.65,0-1.3,0-1.93.1-0.26,0-.52.07-0.78,0.11s-0.72.1-1.08,0.17-0.67.15-1,.24l-0.78.2c-0.39.11-.76,0.25-1.14,0.38l-0.55.2c-0.42.17-.83,0.35-1.23,0.54l-0.37.18q-0.66.33-1.29,0.71l-0.21.13c-0.45.28-.89,0.58-1.32,0.89l-0.09.07q-0.68.51-1.31,1.06a19.71,19.71,0,0,0,13.07,34.48,6.58,6.58,0,0,1,0,13.15,32.88,32.88,0,0,1-9.62-64.33,50.27,50.27,0,0,1,93.77,0A32.88,32.88,0,0,1,149.91,287.59Z" transform="translate(-42.49 -191.13)"/>
	<path class="cls-1" d="M132.18,279.53h0l-15.63,17.37h0a5.16,5.16,0,0,1-7.73,0h0L93.13,279.55h0a5.2,5.2,0,0,1-1.32-3h0c0-.16,0-0.32,0-0.49h0A5.22,5.22,0,0,1,97,270.82h0.62l0.23,0h0a5.21,5.21,0,0,1,3,1.66h0l6.56,7.29V253.43a5.22,5.22,0,1,1,10.44,0v26.41l6.56-7.29h0a5.21,5.21,0,0,1,3-1.66h0l0.23,0h0.62a5.22,5.22,0,0,1,3.88,8.71h0Z" transform="translate(-42.49 -191.13)"/>
</svg>
