<svg id="图层_1" data-name="图层 1" xmlns="http://www.w3.org/2000/svg" viewBox="0 0 216.99 195.8">
	<defs>
		<style>.cls-1{fill:#fff;}.cls-2{fill:#5f3418;}.cls-3{fill:#895126;}.cls-4{fill:#fdf0d4;}.cls-5{fill:#3d1c0a;}</style>
	</defs>
	<title>logo</title>
	<path class="cls-1" d="M379.7,347.15c-0.54-1.46-6.33-16.45-21-22-2.69-1-9.74-3.65-16.47-.61-4.42,2-8.14,6.19-7.32,7.93s5.09-.58,9.76,1.53c6.25,2.81,7.95,11.09,8.24,12.51,1.11,5.41.7,14.5-4.88,18.3-1.56,1.06-6.85,1.37-13.41,1.24l-5.41-22.92a27.76,27.76,0,0,0-5.39-11,50,50,0,0,0-8.07-18.88,21.28,21.28,0,0,0-1.37-2.54,21.55,21.55,0,0,0-8.59-8.06l-0.87-.68a10.5,10.5,0,0,0,7.95-3.87c4.35-4.88,13.11-6.25,13.11-6.25s-4.47-3.12-12.45-4.41-17.74,1.91-17.74,1.91l16.11-13.21-25.79,13.63,2.19-16.46s-15.4,16.71-16.44,16.54-2-13.86-2-13.86l-4.33,13.62-7-7.13c-7-7.13-25.59,4.23-25.59,4.23a54.56,54.56,0,0,0,7.91-.57c3.66-.6,9,3.72,9,3.72s-5.48-2.6-13.34-.72c-10.47,2.51-11.07,23.39-11.07,23.39l15.91-10.24a20.37,20.37,0,0,0-3.94,5.8,50.13,50.13,0,0,0-12.46,25.54,27.77,27.77,0,0,0-4.19,9.17l-5.85,23.32c-6.07.08-10.88-.26-12.35-1.26-5.59-3.81-6-12.89-4.88-18.3,0.29-1.42,2-9.69,8.24-12.51,4.67-2.11,9,.17,9.76-1.53s-2.9-5.94-7.32-7.93c-6.73-3-13.78-.4-16.47.61-14.72,5.51-20.51,20.5-21,22-1.27,3.43-5.7,17,1.53,30.2,5.51,10.07,14.63,14.13,19.22,16.17A42.4,42.4,0,0,0,207,397.15l-0.55,2.2a27.76,27.76,0,0,0,8.09,27.21l-5.1,19.76c0,3.15,2.9,5.7,6.48,5.7h31.24c3.58,0,6.48-2.55,6.48-5.7L251.19,434h2.67l3.21,20.21c0.72,4.55,7.13,8,14.79,8h0c7.49,0,13.81-3.32,14.74-7.75L290.94,434h6.16l-3.19,12.35c0,3.15,2.9,5.7,6.48,5.7h31.24c3.58,0,6.48-2.55,6.48-5.7l-3.92-19.63a27.76,27.76,0,0,0,8.32-27l-0.6-2.53a43,43,0,0,0,17-3.69c4.58-2,13.7-6.09,19.22-16.17C385.41,364.14,381,350.58,379.7,347.15Z" transform="translate(-166.73 -267.88)"/>
	<path class="cls-1" d="M271.86,463.69c-8.43,0-15.43-4-16.27-9.28l-0.9-5.69a8,8,0,0,1-7.51,4.79H215.94c-4.39,0-8-3.23-8-7.19v-0.19l4.93-19.1A29.36,29.36,0,0,1,205,399l0.12-.47a43.2,43.2,0,0,1-14.26-3.64c-4.6-2-14.16-6.3-19.92-16.81-7.12-13-3.5-26.32-1.62-31.43,0.64-1.74,6.7-17.14,21.92-22.84,2.82-1.06,10.32-3.86,17.61-.57,3.64,1.64,7.1,4.81,8,7.36a3.25,3.25,0,0,1,0,2.56c-0.79,1.69-2.66,1.59-4.46,1.49a12.31,12.31,0,0,0-6,.77c-5,2.26-6.84,8.76-7.39,11.45-1,4.89-.7,13.39,4.26,16.77,0.26,0.18,2,1.05,10.35,1l5.57-22.2a29.19,29.19,0,0,1,4.22-9.38,51.54,51.54,0,0,1,12.3-25.44l-12,7.7,0.08-2.83c0-.86.7-20.15,10.7-24.3-1,0-1.67,0-1.74,0l-5.22,0,4.45-2.72c0.8-.49,19.66-11.88,27.43-4l5.29,5.37,5.93-18.65,0.56,7.72c0.31,4.24.82,9.11,1.27,11.57,2.73-2.52,9-9.06,14.62-15.15l3.2-3.47-2.43,18.27,36.34-19.21-22.54,18.47a37.12,37.12,0,0,1,12-.4c8.21,1.33,12.87,4.53,13.06,4.66l3,2.12-3.66.58c-0.08,0-8.3,1.36-12.23,5.77a13.13,13.13,0,0,1-5.12,3.64,24.51,24.51,0,0,1,6.77,7.19,22.72,22.72,0,0,1,1.41,2.6,51.24,51.24,0,0,1,8.16,19,29.06,29.06,0,0,1,5.45,11.33l5.15,21.79c9.26,0.11,11.1-.81,11.39-1,5-3.38,5.26-11.88,4.26-16.77-0.55-2.69-2.38-9.19-7.39-11.45a12.31,12.31,0,0,0-6-.77c-1.8.1-3.67,0.21-4.46-1.49a3.25,3.25,0,0,1,0-2.56c0.94-2.55,4.4-5.71,8-7.36,7.29-3.29,14.79-.48,17.61.57,15.22,5.7,21.28,21.11,21.92,22.84h0c1.89,5.12,5.51,18.42-1.62,31.43-5.76,10.52-15.32,14.77-19.92,16.81a43.87,43.87,0,0,1-15.78,3.74l0.18,0.77a29.39,29.39,0,0,1-8.15,27.82l3.79,19v0.15c0,4-3.58,7.19-8,7.19H300.39c-4.4,0-8-3.23-8-7.19v-0.19l2.75-10.67h-3l-4.09,19.3C287,459.93,280.15,463.69,271.86,463.69Zm-22.49-31.21h5.76l3.41,21.47c0.6,3.79,6.45,6.76,13.32,6.76,6.67,0,12.51-2.88,13.29-6.56l4.59-21.67H299l-3.62,14c0.11,2.24,2.3,4,5,4h31.24c2.7,0,4.9-1.82,5-4.08l-4.05-20.3,0.62-.57a26.4,26.4,0,0,0,7.88-25.51l-1-4.32,1.84,0a41.69,41.69,0,0,0,16.47-3.56c4.63-2.06,13.24-5.89,18.52-15.52,6.53-11.94,3.18-24.24,1.43-29h0c-0.59-1.61-6.19-15.85-20.17-21.08-2.51-.94-9.17-3.43-15.34-0.65-3.73,1.68-6.17,4.61-6.52,5.75,0.39,0,1,0,1.52,0a15,15,0,0,1,7.43,1c6.26,2.82,8.44,10.43,9.08,13.57,1,4.88,1.14,15.31-5.5,19.84-1.09.74-3.76,1.71-14.28,1.5l-1.16,0-5.68-24a26.11,26.11,0,0,0-5.1-10.44l-0.23-.28-0.07-.36a48.28,48.28,0,0,0-7.83-18.32l-0.13-.23A21.4,21.4,0,0,0,305.1,304l-0.15-.07-0.22-.17-0.76-.59-3.55-2.7,4.46,0a9.05,9.05,0,0,0,6.82-3.38c2.73-3.06,6.93-4.82,10-5.77a36.3,36.3,0,0,0-8.49-2.43c-7.53-1.22-16.95,1.82-17,1.85l-7.57,2.48,10.81-8.86-15.23,8.05,2-14.67c-12.87,13.82-13.7,13.69-14.58,13.55s-1.78-.29-2.62-7.81l-2.83,8.9-8.76-8.88c-3.57-3.62-11.45-1.42-17.51,1.24l0.65-.1c4.2-.69,9.59,3.54,10.19,4l9.8,7.91-11.38-5.4a20.4,20.4,0,0,0-12.35-.62c-7,1.69-9.12,13.48-9.71,19.06L240.45,301l1.81,2.35a19,19,0,0,0-3.62,5.38l-0.09.18-0.14.15a48.58,48.58,0,0,0-12.09,24.78l-0.06.33-0.19.28a26.22,26.22,0,0,0-4,8.68L216,367.58h-1.15c-9.67.12-12.17-.81-13.21-1.52-6.64-4.53-6.5-15-5.5-19.84,0.64-3.14,2.82-10.75,9.08-13.57a15,15,0,0,1,7.43-1,14.91,14.91,0,0,0,1.52,0c-0.35-1.15-2.79-4.07-6.52-5.75-6.17-2.79-12.83-.29-15.34.65-14,5.23-19.58,19.48-20.17,21.08-1.75,4.73-5.1,17,1.43,29,5.27,9.63,13.89,13.46,18.52,15.52a40.84,40.84,0,0,0,15,3.51l1.81,0.09-1,4a26.38,26.38,0,0,0,7.66,25.75l0.65,0.6L211,446.49c0.11,2.24,2.3,4,5,4h31.24c2.7,0,4.9-1.82,5-4.08Z" transform="translate(-166.73 -267.88)"/>
	<path class="cls-2" d="M315.43,434h-82a27.83,27.83,0,0,1-27-34.61l14.2-56.57a27.83,27.83,0,0,1,27-21.06h54.4a27.83,27.83,0,0,1,27.09,21.44l13.36,56.57A27.83,27.83,0,0,1,315.43,434Z" transform="translate(-166.73 -267.88)"/>
	<path class="cls-3" d="M247.18,452H215.94c-3.58,0-6.48-2.55-6.48-5.7l8.38-32.46c0-3.15,2.9-5.7,6.48-5.7H240.7c3.58,0,6.48,2.55,6.48,5.7l6.48,32.46C253.66,449.47,250.75,452,247.18,452Z" transform="translate(-166.73 -267.88)"/>
	<path class="cls-1" d="M219.69,444.17a5.33,5.33,0,0,0-5.33,5.33H225A5.33,5.33,0,0,0,219.69,444.17Z" transform="translate(-166.73 -267.88)"/>
	<path class="cls-1" d="M231.56,444.17a5.33,5.33,0,0,0-5.33,5.33h10.67A5.33,5.33,0,0,0,231.56,444.17Z" transform="translate(-166.73 -267.88)"/>
	<path class="cls-1" d="M243.42,444.17a5.33,5.33,0,0,0-5.33,5.33h10.67A5.33,5.33,0,0,0,243.42,444.17Z" transform="translate(-166.73 -267.88)"/>
	<path class="cls-3" d="M331.63,452H300.39c-3.58,0-6.48-2.55-6.48-5.7l8.38-32.46c0-3.15,2.9-5.7,6.48-5.7h16.38c3.58,0,6.48,2.55,6.48,5.7l6.48,32.46C338.11,449.47,335.21,452,331.63,452Z" transform="translate(-166.73 -267.88)"/>
	<path class="cls-1" d="M304.15,444.17a5.33,5.33,0,0,0-5.33,5.33h10.67A5.33,5.33,0,0,0,304.15,444.17Z" transform="translate(-166.73 -267.88)"/>
	<path class="cls-1" d="M316,444.17a5.33,5.33,0,0,0-5.33,5.33h10.67A5.33,5.33,0,0,0,316,444.17Z" transform="translate(-166.73 -267.88)"/>
	<path class="cls-1" d="M327.88,444.17a5.33,5.33,0,0,0-5.33,5.33h10.67A5.33,5.33,0,0,0,327.88,444.17Z" transform="translate(-166.73 -267.88)"/>
	<path class="cls-4" d="M301.37,363c9.34,2,42.3,4.8,46.61,1.86,5.59-3.81,6-12.89,4.88-18.3-0.29-1.42-2-9.69-8.24-12.51-4.67-2.11-9,.17-9.76-1.53s2.9-5.94,7.32-7.93c6.73-3,13.78-.4,16.47.61,14.72,5.51,20.51,20.5,21,22,1.27,3.43,5.7,17-1.53,30.2-5.51,10.07-14.63,14.13-19.22,16.17-10,4.43-18.48,3.9-27.15,3.36-9-.56-42-2.58-45.39-7-2.39-3.19-2.31-7-2.14-14.64s0.28-12.37,3.36-14.34C290.35,359.11,292.92,361.18,301.37,363Z" transform="translate(-166.73 -267.88)"/>
	<path class="cls-4" d="M249.07,363c-9.34,2-42.3,4.8-46.61,1.86-5.59-3.81-6-12.89-4.88-18.3,0.29-1.42,2-9.69,8.24-12.51,4.67-2.11,9,.17,9.76-1.53s-2.9-5.94-7.32-7.93c-6.73-3-13.78-.4-16.47.61-14.72,5.51-20.51,20.5-21,22-1.27,3.43-5.7,17,1.53,30.2,5.51,10.07,14.63,14.13,19.22,16.17,10,4.43,18.48,3.9,27.15,3.36,9-.56,42-2.58,45.39-7,2.39-3.19,2.31-7,2.14-14.64s-0.28-12.37-3.36-14.34C260.09,359.11,257.52,361.18,249.07,363Z" transform="translate(-166.73 -267.88)"/>
	<circle class="cls-3" cx="107.72" cy="74.13" r="50.3"/>
	<path class="cls-3" d="M271.86,462.2h0c-7.67,0-14.07-3.47-14.79-8l-15.48-97.56c-0.82-5.2,6-9.69,14.79-9.69h36.13c8.94,0,15.86,4.67,14.74,10L286.6,454.45C285.67,458.88,279.35,462.2,271.86,462.2Z" transform="translate(-166.73 -267.88)"/>
	<ellipse class="cls-1" cx="90.9" cy="76.81" rx="11.64" ry="12.53"/>
	<ellipse cx="92.81" cy="74.42" rx="7.62" ry="8.2"/>
	<path class="cls-1" d="M259.41,339.81a1.18,1.18,0,0,0-.82.68,2,2,0,0,0,.69,2.26,1.32,1.32,0,0,0,1.11.25,1,1,0,0,0,.77-0.68,1.8,1.8,0,0,0-.69-2.26,1.2,1.2,0,0,0-1.05-.25h0Z" transform="translate(-166.73 -267.88)"/>
	<ellipse class="cls-1" cx="123.21" cy="76.81" rx="11.64" ry="12.53"/>
	<ellipse cx="125.12" cy="74.42" rx="7.62" ry="8.2"/>
	<path class="cls-1" d="M291.72,339.81a1.18,1.18,0,0,0-.82.68,2,2,0,0,0,.69,2.26,1.32,1.32,0,0,0,1.11.25,1,1,0,0,0,.77-0.68,1.8,1.8,0,0,0-.69-2.26,1.2,1.2,0,0,0-1.05-.25h0Z" transform="translate(-166.73 -267.88)"/>
	<path class="cls-5" d="M295.74,289.34s9.77-3.2,17.74-1.91,12.45,4.41,12.45,4.41-8.76,1.37-13.11,6.25-9.15,3.77-9.15,3.77,5.84,1.28,10.66,8.85,5.17,20.79,5.17,20.79-5.54-14.07-13.2-12.92-14.19-6.84-14.19-6.84a13.3,13.3,0,0,1,3.12,15.82c-4.41,9.66-5.74,13.44-5.74,13.44s2.58-1.58-4.68-15.53-7.07-15.12-7.07-15.12-9.36,20.43-7.51,24.32-8.19-6.52-7.78-11.24a76.14,76.14,0,0,0,0-10.09s-5,5.72-5.87,10.77-6.19,14.13-6.19,14.13-4.32-14.81-2.11-19.9-10.84,14.2-10.84,14.2-5.39-12.85-1.45-21.79,6.49-9.32,6.49-9.32l-17.19,11.06s0.61-20.88,11.07-23.39c7.86-1.88,13.34.72,13.34,0.72s-5.35-4.32-9-3.72a54.56,54.56,0,0,1-7.91.57s18.57-11.35,25.59-4.23l7,7.13L269.79,276s1,13.69,2,13.86,16.44-16.54,16.44-16.54l-2.19,16.46,25.79-13.63Z" transform="translate(-166.73 -267.88)"/>
	<path class="cls-2" d="M274.44,381.5a17.46,17.46,0,0,1,14.28,6.91,0.5,0.5,0,0,0,.89-0.22h0c0-7.27-6.79-13.16-15.16-13.16s-15.16,5.89-15.16,13.16h0a0.5,0.5,0,0,0,.89.22A17.46,17.46,0,0,1,274.44,381.5Z" transform="translate(-166.73 -267.88)"/>
	<path class="cls-2" d="M274.44,397.43a14.63,14.63,0,0,1,12,5.79,0.42,0.42,0,0,0,.74-0.18h0c0-6.09-5.69-11-12.71-11s-12.71,4.94-12.71,11h0a0.42,0.42,0,0,0,.74.18A14.63,14.63,0,0,1,274.44,397.43Z" transform="translate(-166.73 -267.88)"/>
	<path class="cls-2" d="M274.44,413.32a13.87,13.87,0,0,1,11.34,5.49,0.39,0.39,0,0,0,.7-0.17h0c0-5.78-5.39-10.46-12-10.46s-12,4.68-12,10.46h0a0.39,0.39,0,0,0,.7.17A13.87,13.87,0,0,1,274.44,413.32Z" transform="translate(-166.73 -267.88)"/>
	<path class="cls-2" d="M274.44,429.23a12.18,12.18,0,0,1,10,4.82,0.35,0.35,0,0,0,.62-0.15h0c0-5.07-4.73-9.18-10.57-9.18s-10.57,4.11-10.57,9.18h0a0.35,0.35,0,0,0,.62.15A12.18,12.18,0,0,1,274.44,429.23Z" transform="translate(-166.73 -267.88)"/>
</svg>
